# xmcd CD database file
# Generated: Fr Okt 24 13:38:00 2003 by KSCD
# 
# Track frame offsets:
#       150
#       21745
#       43431
#       61097
#       85097
#       104297
#       119229
#
# Disc length: 1993 seconds
#
# Revision: 1
# Processed by: cddbd v1.4PL0 Copyright (c) Steve Scherf et al.
# Submitted via: Kscd 1.3.3
#
DISCID=6407c707
DTITLE=Theodor Baztard - Promo-CD
DYEAR=1900
DGENRE=
TTITLE0=Bosa_Nova_A4_final
TTITLE1=DOGMA
TTITLE2=PUSTOTA_RADIO
TTITLE3=Massive
TTITLE4=2_Volga_final
TTITLE5=SATORI_AISHA
TTITLE6=SELVA
EXTD=
EXTT0=
EXTT1=
EXTT2=
EXTT3=
EXTT4=
EXTT5=
EXTT6=
PLAYORDER=
